# xmcd
# 
# Track frame offsets:
#     150
#     18279
#     34917
#     50799
#     66946
#     84372
#     102436
#     118920
#     135150
#     154472
#     169181
#     185822
#     203152
#     219120
#     235596
#     254210
# 
# Disc length: 3655
# 
# Revision: 4
# Processed by: cddbd v1.5.2PL0 Copyright (c) Steve Scherf et al.
# Submitted via: fre:ac v1.0.31
# 
DISCID=e70e4510
DTITLE=Various Artist - Die ultimativen Disco Hits
DYEAR=2007
DGENRE=Disco
TTITLE0=Dr. Alban - It's My Life
TTITLE1=Dan Hartman - Relight My Fire
TTITLE2=The Weather Girls - It's Raining Men
TTITLE3=Earth, Wind and Fire - September
TTITLE4=Alcazar - Crying At The Discoteque
TTITLE5=Tom Novy Feat. Lima - Now Or Never
TTITLE6=Eiffel 65 - Blue (Da Ba Dee)
TTITLE7=A Touch of Glass - Around The World (La La La La La)
TTITLE8=Culture Beat - Mr. Vain
TTITLE9=Prezioso Feat. Marvin - Tell Me Why
TTITLE10=Wolfgang Petry - Die Längste Single Der Welt
TTITLE11=Modern Talking - You're My Heart, You're My Soul
TTITLE12=Las Ketchup - The Ketchup Song (Aserejé)
TTITLE13=Lou Bega - Mambo No. 5 (A Little Bit Of...)
TTITLE14=Roland Kaiser - Hit-Mix
TTITLE15=Dr. Alban - Sing Hallelujah !
EXTD=SONY/BMG LC08637
EXTT0=
EXTT1=
EXTT2=
EXTT3=
EXTT4=
EXTT5=
EXTT6=
EXTT7=
EXTT8=
EXTT9=
EXTT10=
EXTT11=
EXTT12=
EXTT13=
EXTT14=
EXTT15=
PLAYORDER=
